<?xml version="1.0" standalone="no"?>
<!DOCTYPE svg PUBLIC "-//W3C//DTD SVG 1.1//EN" "http://www.w3.org/Graphics/SVG/1.1/DTD/svg11.dtd" >
<svg xmlns="http://www.w3.org/2000/svg" xmlns:xlink="http://www.w3.org/1999/xlink" version="1.1" viewBox="-10 0 419 1000">
   <path fill="#ffffff"
d="M132 444l155 -114q32 39 49 52q11 12 42 31q-45 18 -45 37v230q0 54 48 53v9q-52 0 -118 59q-61 55 -61 99q0 24 32 24q10 0 25 -7.5l15 -7.5q1 1 7 8q-31 27 -106 86l-7 -5q0 -5 8 -13q-41 -21 -43 -54q-1 -30 32 -60q27 -25 53 -46q32 -35 32 -63l1 -295q0 -57 -30 -57
q-32 0 -89 59l-1 60l1 127q-2 14 3 46q8 23 40 27v6q-24 3 -50 27.5t-35 49.5q-1 2 -3 0q-9 -30 -28 -51q-23 -26 -51 -26v-6q12 -4 19 -6q14 -6 17 -17q8 -27 5 -50v-381q-9 -41 -49 -53l1 -2q44 -5 117 -55q70 -48 111 -49q46 -1 73 22.5t27 62.5q0 30 -27.5 51.5
t-61.5 21.5q-32 0 -65 -24l-15 6l-3 -6l66 -70l-3 18q0 11 16 20t34 9q43 -1 43 -30q0 -32 -25.5 -52t-62.5 -17q-35 3 -65 49q-28 42 -28 80v187z" />
</svg>
