<?xml version="1.0" standalone="no"?>
<!DOCTYPE svg PUBLIC "-//W3C//DTD SVG 1.1//EN" "http://www.w3.org/Graphics/SVG/1.1/DTD/svg11.dtd" >
<svg xmlns="http://www.w3.org/2000/svg" xmlns:xlink="http://www.w3.org/1999/xlink" version="1.1" viewBox="-12 0 674 1000">
   <path fill="#ffffff"
d="M420 222h-16v349q2 0 16 -7v-342zM535 620q0 -26 -24 -40q-19 -11 -44 -11q-19 0 -33 3v114h10q27 0 55 -16q36 -21 36 -50zM422 576l-18 6v105h18v-111zM505 302q0 -14 16 -14q-1 -2 -8 -7q-13 -1 -24.5 7t-11.5 20q0 17 42.5 46t43.5 62q2 64 -129 123v19q17 -7 61 -29
l18 -12q22 -14 47 -31q19 -12 21 -13q3 2 4 8q-15 7 -15 17q0 -21 24 19.5t25 56.5q2 47 -75 86q-113 57 -174 117q-10 10 -31 39q-6 0 -9 -1q-1 -6 -12 -20q-5 -5 -14 -8q-104 -31 -172 -73q-6 7 -13 13q-7 10 -13 32q-2 7 -2 13q0 21 25 22q10 1 19 -6t9 -16q0 -6 -7 -12
q-7 17 -17 17q-12 0 -12 -13q0 -16 20 -16q27 0 28 25q1 14 -11 23.5t-28 8.5q-37 -2 -37 -44q0 -24 31 -54q-92 -72 -92 -181q0 -96 76 -174q44 -45 158 -109l4 1q-157 148 -156 232q2 91 88 152q82 58 177 58h12v-97l-12 5q-42 17 -42 46q0 21 18 21q6 0 7 -3
q-1 -1 -5.5 -4.5t-4.5 -8.5q-1 -12 10 -12q13 0 15 14q0 8 -7 14.5t-13 6.5q-27 0 -29 -35q-1 -26 63 -56q-1 -38 -1 -86v-268q1 1 -14 1q-34 1 -33 95q0 54 1 191q0 23 5 31q6 12 26 14l-150 85q-7 -2 -8 -6q24 -30 32.5 -47t8.5 -52q1 -114 0 -168q-1 -48 -28 -48
q-2 0 -10 2q23 -19 127 -96l-217 -1q-73 0 -73 44q0 39 44 38q15 0 29.5 -11t13.5 -24q-1 -17 -13 -18q1 -1 1 13t-20 14q-14 0 -14 -15q0 -26 27 -25q29 2 29 32q0 22 -30 45q-1 1 -47 30q-52 33 -56 33t-6 -6l14 -12l-17 -20q-13 -18 -13 -38q-1 -49 38 -72q17 -9 62 -36
q32 -19 98 -82q5 12 23 18h344q14 -2 33 -18l7 6q-48 51 -119 122q-1 -4 -4 -13q-6 -2 -10.5 -4.5t-37.5 -1.5v306q-2 -2 18 -10q31 -12 62 -40q39 -35 39 -64q0 -20 -14 -34.5t-32 -13.5q-16 1 -29 12t-13 25q0 12 8.5 22t19.5 10q22 -1 20 -12q-1 -1 -5 -1q-17 0 -17 -15
q-2 -14 15 -14q21 0 21 22q0 11 -11 20.5t-22 9.5q-17 0 -28 -12t-11 -29q-1 -36 48 -49q-33 -22 -35 -47q-1 -15 11 -25.5t28 -11.5q22 -1 32 21q3 23 -17 23q-16 0 -16 -14zM636 633q-39 25 -39 55v8q-18 -11 -31 -11q-7 0 -23 5.5t-19 9.5q63 4 61 56q-1 19 -14.5 33
t-32.5 13q-39 -2 -37 -33q1 -28 22 -26q18 1 17 16q0 10 -8 13q-7 3 -16 -2l-5 2q2 20 30 21q11 0 22.5 -11.5t12.5 -22.5q1 -20 -15 -33.5t-38 -13.5q-62 0 -64 58q0 15 1 22q-30 -11 -33 -10q-19 3 -46 21l-1 -0.5t-2 -1.5q51 -72 259 -175l3 3zM203 564q0 -15 14 -16
q20 -2 20 24q0 8 -9.5 17t-19.5 9q-38 0 -35 -39q1 -16 10 -36q3 -6 -19 -26q-16 -15 -28 -23l54 -39q21 -15 20 -44q-1 -22 -19 -22q-3 0 -8 5q2 3 5 5.5t3 8.5q0 12 -12 12q-15 0 -15 -15q0 -21 28 -24q11 0 19 10t8 20q0 26 -14 43q-6 4 42 42q0 -2 -33.5 29t-32.5 54
q1 33 26 31q21 -1 21 -18v-3q-6 6 -11 6q-14 0 -14 -11z" />
</svg>
